<svg width="40" height="46" viewBox="0 0 40 46" fill="none" xmlns="http://www.w3.org/2000/svg">
<path d="M8.73554 2.41891L33.9309 7.59081C34.2215 7.65041 34.4875 7.79577 34.6947 8.00815C34.902 8.22052 35.041 8.49019 35.0938 8.78238C35.7954 12.623 36.1869 28.6238 37.3672 35.2221C37.561 36.3167 39.4449 40.3222 39.4449 40.3222C39.4841 40.4012 39.5024 40.4889 39.498 40.577C39.4936 40.665 39.4666 40.7505 39.4197 40.8252C39.3728 40.8998 39.3075 40.9611 39.2301 41.0032C39.1527 41.0453 39.0658 41.0667 38.9778 41.0655L34.5046 40.8113C34.1908 40.8045 33.879 40.8625 33.5885 40.9817C33.2981 41.1008 33.0353 41.2787 32.8165 41.5041L29.3648 45.0536C29.0785 45.2733 28.7448 45.4229 28.3904 45.4903C28.036 45.5577 27.6708 45.541 27.3239 45.4417L1.68859 37.8964C1.5595 37.8594 1.4397 37.7955 1.3371 37.7087C1.23451 37.622 1.15144 37.5145 1.09338 37.3933C1.03532 37.2721 1.00359 37.1399 1.00029 37.0055C0.996982 36.8711 1.02217 36.7375 1.0742 36.6136L3.21969 31.4805C3.7236 30.2695 3.2914 28.7461 3.52009 21.946C3.7953 13.768 7.87309 3.0147 7.87309 3.0147C7.88755 2.9174 7.92182 2.8241 7.97378 2.74061C8.02575 2.65712 8.09429 2.58522 8.17516 2.52935C8.25603 2.47349 8.3475 2.43486 8.4439 2.41586C8.54029 2.39686 8.63956 2.3979 8.73554 2.41891V2.41891Z" fill="#B5865C" stroke="black" stroke-width="0.925926" stroke-miterlimit="10"/>
<path d="M39.1393 40.8618C39.0912 40.9173 39.0316 40.9616 38.9646 40.9917C38.8977 41.0219 38.8251 41.0371 38.7517 41.0365L34.5073 40.8114C34.1935 40.8047 33.8816 40.8627 33.5912 40.9819C33.3008 41.1011 33.038 41.2789 32.8192 41.5042L29.3654 45.0537C29.1135 45.2477 28.9332 45.0285 28.6367 45.1041L32.7552 37.9644V37.8945L39.1393 40.8618Z" fill="#421E0B" stroke="black" stroke-width="0.925926" stroke-miterlimit="10"/>
<path d="M37.3007 34.819C37.3297 36.0067 39.4326 40.3228 39.4326 40.3228C39.5334 40.5169 39.3686 40.7109 39.2388 40.8623L32.75 37.8989L34.2792 9.15169L34.473 7.83203C34.6354 7.94268 34.7743 8.0846 34.8814 8.24953C34.9886 8.41446 35.0619 8.59909 35.097 8.79266C35.7928 12.6236 37.1204 27.4619 37.3007 34.819Z" fill="#5B2A0E" stroke="black" stroke-width="0.925926" stroke-miterlimit="10"/>
<path d="M6.84766 32.332L24.6104 37.0304" stroke="#5B2A0E" stroke-width="0.925926" stroke-miterlimit="10" stroke-linecap="round"/>
<path d="M34.2773 9.15039L32.7578 37.9054V37.9752L28.5444 45.2469L28.3951 45.278C28.2924 43.25 29.1587 39.9353 29.5405 38.5167C29.6289 38.1761 29.6655 37.8241 29.6491 37.4726C29.6239 36.8419 29.775 35.9084 30.0251 35.7745C30.3545 35.594 30.6239 35.072 30.6782 34.6994L34.2773 9.15039Z" fill="#825C43" stroke="black" stroke-width="0.925926" stroke-miterlimit="10"/>
<g style="mix-blend-mode:multiply">
<path d="M8.84366 2.9909L32.9236 7.6472C33.396 7.73855 33.8128 8.01406 34.0823 8.41313C34.3518 8.81219 34.452 9.30213 34.3608 9.77515L33.8786 12.2751C33.7196 13.0999 33.2398 13.8276 32.545 14.2981C31.8501 14.7687 30.997 14.9436 30.1733 14.7843L8.74227 10.6402C7.91861 10.481 7.19187 10.0006 6.72193 9.30478C6.25199 8.60897 6.07734 7.75473 6.2364 6.92998L6.71817 4.43191C6.76312 4.19748 6.85377 3.97424 6.98494 3.77492C7.11612 3.5756 7.28524 3.40412 7.48264 3.27029C7.68004 3.13646 7.90185 3.0429 8.13538 2.99496C8.36891 2.94702 8.60959 2.94564 8.84366 2.9909Z" fill="#CC966A"/>
</g>
<path d="M8.76854 1.35104L33.8875 6.20825C34.3695 6.30145 34.7947 6.58255 35.0697 6.98972C35.3447 7.39689 35.4469 7.89677 35.3538 8.37939L34.8904 10.7822C34.7283 11.6231 34.2391 12.3651 33.5306 12.8449C32.8221 13.3247 31.9522 13.503 31.1124 13.3406L8.6938 9.00552C7.85399 8.84313 7.113 8.35334 6.63384 7.64389C6.15468 6.93444 5.9766 6.06344 6.13878 5.22252L6.60365 2.8121C6.69842 2.33152 6.97935 1.90806 7.38502 1.63427C7.79069 1.36049 8.28811 1.25866 8.76854 1.35104V1.35104Z" fill="#CC966A" stroke="black" stroke-width="0.925926" stroke-miterlimit="10"/>
</svg>
